<?xml version="1.0" encoding="UTF-8"?>
<svg id="Layer_1" data-name="Layer 1" xmlns="http://www.w3.org/2000/svg" viewBox="0 0 1000 1000">
  <defs>
    <style>
      .cls-1 {
        fill: #fff;
      }
    </style>
  </defs>
  <rect class="cls-1" width="1000" height="1000"/>
  <g>
    <path d="M775,377.5v120c0,8.28-6.72,15-15,15h-233.45c-36.66,0-71.49,16.1-95.24,44.04l-64.32,75.67c-2.85,3.35-7.03,5.29-11.43,5.29h-115.56c-8.28,0-15-6.72-15-15v-120c0-8.28,6.72-15,15-15h233.45c36.66,0,71.49-16.1,95.24-44.05l64.32-75.66c2.85-3.35,7.03-5.29,11.43-5.29h115.56c8.28,0,15,6.72,15,15Z"/>
    <path d="M775,255v15c0,2.76-2.24,5-5,5h-243.45c-36.66,0-71.49,16.09-95.24,44.03l-64.32,75.68c-2.85,3.35-7.03,5.29-11.43,5.29h-115.56c-8.28,0-15-6.72-15-15v-120c0-8.28,6.72-15,15-15h530c2.76,0,5,2.24,5,5Z"/>
    <path d="M225,745v-15c0-2.76,2.24-5,5-5h243.45c36.66,0,71.49-16.09,95.24-44.03l64.32-75.68c2.85-3.35,7.03-5.29,11.43-5.29h115.56c8.28,0,15,6.72,15,15v120c0,8.28-6.72,15-15,15H230c-2.76,0-5-2.24-5-5Z"/>
  </g>
</svg>